<?xml version="1.0" standalone="no"?>
<!DOCTYPE svg PUBLIC "-//W3C//DTD SVG 20010904//EN"
 "http://www.w3.org/TR/2001/REC-SVG-20010904/DTD/svg10.dtd">
<svg version="1.0" xmlns="http://www.w3.org/2000/svg"
 width="1280.000000pt" height="1280.000000pt" viewBox="0 0 1280.000000 1280.000000"
 preserveAspectRatio="xMidYMid meet">
<metadata>
Created by potrace 1.11, written by Peter Selinger 2001-2013
</metadata>
<g transform="translate(0.000000,1280.000000) scale(0.100000,-0.100000)"
fill="#000000" stroke="none">
<path d="M6100 12790 c-197 -41 -262 -46 -695 -55 -291 -6 -452 -14 -582 -30
-24 -3 -61 -7 -83 -10 -22 -2 -66 -9 -98 -14 -31 -6 -75 -13 -97 -16 -22 -3
-47 -7 -55 -10 -8 -2 -35 -6 -60 -9 -25 -3 -54 -8 -65 -10 -70 -13 -113 -20
-135 -22 -14 -1 -25 -3 -25 -4 0 -2 -17 -6 -65 -14 -19 -3 -46 -8 -60 -11 -14
-3 -38 -7 -55 -9 -16 -3 -52 -10 -80 -16 -27 -7 -59 -14 -70 -16 -42 -8 -61
-13 -105 -23 -25 -7 -52 -13 -60 -15 -8 -2 -42 -11 -75 -20 -33 -10 -64 -18
-70 -20 -85 -22 -307 -104 -357 -132 -16 -8 -28 -13 -28 -10 0 6 -307 -148
-402 -201 -131 -74 -184 -106 -253 -151 -65 -43 -227 -156 -250 -174 -5 -5
-39 -31 -75 -59 -148 -116 -432 -388 -514 -494 -22 -27 -44 -54 -51 -60 -6 -5
-31 -37 -55 -70 -25 -33 -48 -62 -51 -65 -3 -3 -37 -52 -76 -110 -135 -202
-249 -418 -352 -667 -28 -68 -74 -171 -101 -229 -28 -58 -50 -108 -50 -110 0
-2 -24 -54 -54 -116 -73 -154 -159 -366 -191 -468 -15 -47 -29 -92 -32 -100
-3 -8 -7 -19 -8 -25 -5 -17 -36 -149 -41 -170 -23 -97 -58 -297 -70 -395 -3
-30 -8 -68 -10 -85 -19 -160 -26 -708 -11 -885 15 -176 24 -269 32 -330 2 -19
7 -57 10 -85 10 -88 17 -139 21 -160 2 -10 6 -37 9 -60 4 -22 13 -78 21 -125
8 -47 17 -100 20 -119 3 -18 8 -43 11 -55 13 -54 22 -93 27 -114 3 -12 17 -62
31 -110 171 -572 532 -1048 1045 -1377 214 -137 310 -205 605 -435 496 -385
856 -579 1345 -724 62 -18 61 -18 185 -44 99 -21 286 -26 358 -10 23 5 50 12
60 14 9 2 25 6 35 8 78 18 176 71 322 173 104 73 250 159 250 147 0 -4 7 0 16
7 17 14 37 22 171 69 46 16 83 27 83 24 0 -3 8 0 19 5 10 6 33 13 52 16 19 3
52 11 74 17 68 19 221 20 258 2 60 -29 72 -57 74 -170 0 -56 -3 -121 -7 -145
-15 -81 -30 -164 -35 -199 -3 -19 -7 -48 -10 -65 -8 -47 -14 -86 -20 -130 -4
-22 -13 -80 -21 -130 -8 -49 -17 -101 -19 -115 -6 -39 -35 -203 -39 -226 -2
-12 -7 -37 -10 -55 -9 -52 -16 -90 -26 -144 -5 -27 -13 -68 -16 -90 -3 -22 -8
-44 -11 -48 -9 -15 -11 -263 -2 -322 11 -74 52 -209 86 -284 23 -50 90 -168
103 -181 3 -3 25 -31 49 -63 58 -76 188 -197 276 -255 73 -49 195 -115 195
-105 0 3 6 1 13 -5 19 -16 124 -50 191 -63 38 -7 206 -13 436 -15 363 -3 401
-4 520 -18 154 -19 344 -87 455 -163 71 -48 81 -57 206 -176 161 -155 285
-258 454 -378 50 -35 92 -66 95 -69 7 -8 204 -134 320 -205 52 -32 107 -66
122 -76 15 -11 29 -19 31 -19 3 0 44 -24 93 -53 49 -29 96 -56 104 -60 8 -5
24 -13 35 -20 28 -17 172 -100 218 -126 20 -11 52 -29 70 -39 93 -53 354 -155
427 -167 14 -2 48 -9 75 -15 94 -20 120 -22 281 -24 284 -5 418 31 507 134 82
96 98 179 102 525 1 143 5 271 9 284 45 183 124 307 285 445 127 109 172 166
226 281 69 147 104 303 85 374 -19 70 -70 111 -189 152 -120 41 -477 160 -491
164 -8 2 -217 72 -465 155 -247 84 -454 153 -460 154 -5 1 -14 4 -20 8 -5 3
-32 13 -60 21 -50 15 -471 160 -555 191 -25 10 -49 18 -55 20 -141 36 -475
179 -604 258 -225 138 -401 342 -417 484 -10 81 37 200 203 511 44 83 83 111
108 77 19 -25 20 -34 11 -104 -11 -87 -16 -125 -22 -152 -3 -15 -6 -30 -6 -33
0 -8 -35 -138 -61 -225 -27 -94 -28 -154 -3 -215 22 -51 37 -67 121 -129 255
-189 377 -249 714 -347 110 -33 397 -106 441 -114 42 -7 69 -12 220 -44 160
-33 191 -40 235 -47 17 -3 46 -9 65 -14 19 -5 73 -16 120 -24 104 -19 131 -24
195 -36 28 -6 61 -12 75 -15 14 -3 38 -7 53 -11 16 -3 38 -7 50 -9 12 -2 49
-9 82 -15 33 -6 74 -13 90 -16 17 -2 50 -9 75 -14 25 -5 59 -12 75 -15 17 -2
41 -7 55 -10 14 -3 41 -7 60 -10 19 -2 46 -7 60 -10 14 -3 39 -7 55 -10 17 -2
53 -8 80 -14 28 -5 70 -12 95 -16 25 -4 63 -10 85 -14 105 -20 231 5 273 54
47 54 57 86 59 195 1 58 -2 125 -7 150 -4 25 -11 65 -15 90 -12 77 -13 85 -15
88 -3 3 -3 2 -20 77 -15 68 -15 65 -22 85 -3 8 -16 44 -28 80 -13 36 -41 108
-63 160 -141 337 -196 570 -191 810 4 206 43 356 149 575 72 147 150 355 165
434 6 35 9 65 7 67 -8 9 -124 -56 -148 -82 -14 -16 -126 -157 -248 -314 -123
-157 -231 -291 -240 -298 -9 -7 -24 -19 -34 -27 -16 -14 -18 -13 -26 7 -14 36
-4 193 15 250 20 60 108 233 168 328 149 239 323 408 524 509 34 17 62 29 62
27 0 -3 15 1 33 9 18 7 80 26 138 40 57 14 128 33 157 41 l53 16 -3 71 -3 71
-70 43 c-38 24 -77 46 -85 50 -8 3 -49 29 -90 57 -263 175 -420 374 -460 581
-4 22 -12 63 -18 90 -6 28 -13 68 -16 90 -4 23 -9 52 -11 65 -5 26 -10 56 -21
155 -10 79 -10 426 -1 490 4 28 10 68 13 90 3 22 10 60 16 85 5 25 11 53 13
63 2 10 7 27 10 37 3 10 8 27 10 37 2 10 10 50 18 88 28 132 39 233 40 365 0
64 -11 229 -19 259 -2 9 -10 45 -18 81 -8 36 -35 142 -61 235 -25 94 -48 178
-51 188 -2 9 -7 27 -10 40 -3 12 -9 38 -14 57 -5 19 -15 59 -24 89 -8 30 -13
58 -10 63 3 4 1 8 -3 8 -5 0 -9 10 -10 23 -2 40 -61 325 -92 440 -48 178 -115
355 -196 513 -199 388 -435 665 -820 964 -103 80 -262 214 -330 277 -11 10
-38 32 -60 48 -22 17 -42 33 -45 36 -5 7 -254 195 -290 219 -12 8 -40 27 -61
43 -21 15 -43 27 -49 27 -5 0 -10 3 -10 8 0 4 -10 12 -23 18 -12 6 -69 36
-127 65 -92 48 -185 90 -257 120 -13 5 -33 13 -45 19 -65 29 -282 103 -428
146 -155 46 -422 115 -500 128 -14 3 -25 5 -25 6 0 1 -7 3 -15 5 -8 1 -42 8
-75 14 -33 7 -73 16 -90 21 -16 5 -50 12 -75 15 -25 4 -70 12 -100 20 -30 7
-73 16 -95 20 -22 4 -51 9 -65 11 -14 3 -32 7 -40 9 -8 3 -32 7 -54 11 -21 3
-46 7 -55 9 -9 2 -83 17 -166 34 l-150 31 -465 -1 c-256 -1 -481 -5 -500 -9z
m4579 -4261 c43 -40 31 -78 -107 -360 -121 -248 -149 -315 -158 -382 -7 -55
-7 -137 1 -175 9 -50 55 -131 116 -207 73 -91 107 -152 138 -246 37 -112 44
-168 44 -349 1 -388 -38 -454 -267 -446 -116 5 -220 31 -311 79 -65 34 -229
190 -255 242 -8 17 -18 32 -21 35 -15 13 -91 185 -123 280 -77 232 -82 258
-72 370 3 32 26 79 103 213 35 59 63 110 63 112 0 2 47 86 105 186 58 100 105
186 105 191 0 4 4 8 9 8 5 0 11 8 15 18 3 9 16 33 28 53 13 19 36 57 52 85 86
143 147 224 189 249 98 57 304 83 346 44z m-3397 -2115 c32 -17 128 -111 128
-126 0 -15 101 -156 133 -184 105 -95 156 -118 334 -153 329 -67 523 -142 908
-356 22 -12 130 -74 240 -137 110 -63 225 -128 255 -145 125 -67 171 -103 198
-150 37 -67 -26 -144 -113 -138 -16 2 -97 6 -180 9 -82 4 -172 9 -200 11 -223
14 -274 18 -300 20 -16 2 -48 4 -71 4 -39 1 -52 8 -133 79 -107 93 -270 172
-411 200 -45 8 -234 9 -280 1 -127 -24 -186 -46 -352 -129 -64 -33 -167 -80
-228 -104 l-111 -45 -77 35 c-181 82 -236 113 -296 164 -209 177 -342 401
-422 710 -14 52 -27 111 -30 130 -3 19 -10 53 -15 75 -10 47 -12 119 -3 128
11 11 40 -29 59 -80 38 -100 107 -181 183 -215 124 -56 259 6 378 173 68 97
115 147 169 184 93 64 165 76 237 39z"/>
</g>
</svg>
